<svg width="27" height="27" viewBox="0 0 27 27" fill="none" xmlns="http://www.w3.org/2000/svg">
<g clip-path="url(#clip0)">
<path d="M25.072 17.3574C24.5394 17.3574 24.1077 17.7891 24.1077 18.3217V24.1074C24.1077 24.64 23.676 25.0717 23.1434 25.0717H3.85776C3.32518 25.0717 2.89345 24.64 2.89345 24.1074V18.3217C2.89345 17.7891 2.46173 17.3574 1.92915 17.3574C1.39657 17.3574 0.964844 17.7891 0.964844 18.3217V24.1074C0.964844 25.7051 2.26002 27.0003 3.8577 27.0003H23.1434C24.7411 27.0003 26.0363 25.7051 26.0363 24.1074V18.3217C26.0363 17.7891 25.6046 17.3574 25.072 17.3574Z" fill="#828282"/>
<mask id="path-2-inside-1" fill="white">
<path d="M18.9819 16.6754C18.6082 16.3145 18.0157 16.3145 17.6421 16.6754L14.4648 19.8507V0.964304C14.4648 0.431725 14.033 0 13.5005 0C12.9679 0 12.5362 0.431725 12.5362 0.964304V19.8508L9.36074 16.6754C8.97766 16.3054 8.36723 16.316 7.99726 16.6991C7.63633 17.0728 7.63633 17.6652 7.99726 18.0389L12.8187 22.8603C13.1948 23.2373 13.8053 23.2381 14.1824 22.862L14.1841 22.8603L19.0055 18.0389C19.3756 17.6558 19.3649 17.0454 18.9819 16.6754Z"/>
</mask>
<path d="M18.9819 16.6754C18.6082 16.3145 18.0157 16.3145 17.6421 16.6754L14.4648 19.8507V0.964304C14.4648 0.431725 14.033 0 13.5005 0C12.9679 0 12.5362 0.431725 12.5362 0.964304V19.8508L9.36074 16.6754C8.97766 16.3054 8.36723 16.316 7.99726 16.6991C7.63633 17.0728 7.63633 17.6652 7.99726 18.0389L12.8187 22.8603C13.1948 23.2373 13.8053 23.2381 14.1824 22.862L14.1841 22.8603L19.0055 18.0389C19.3756 17.6558 19.3649 17.0454 18.9819 16.6754Z" fill="#828282"/>
<path d="M18.9819 16.6754L34.2651 0.85065L34.2643 0.849838L18.9819 16.6754ZM17.6421 16.6754L2.3585 0.850993L2.22342 0.981456L2.09058 1.11421L17.6421 16.6754ZM14.4648 19.8507H-7.53523V72.9401L30.0163 35.4119L14.4648 19.8507ZM12.5362 19.8508L-3.02019 35.4072L34.5362 72.9635V19.8508H12.5362ZM9.36074 16.6754L24.9171 1.11904L24.7817 0.983658L24.644 0.850651L9.36074 16.6754ZM7.99726 16.6991L-7.82636 1.41465L-7.8271 1.41542L7.99726 16.6991ZM7.99726 18.0389L-7.8271 33.3225L-7.69428 33.46L-7.5591 33.5952L7.99726 18.0389ZM12.8187 22.8603L28.3937 7.32262L28.3844 7.31327L28.375 7.30394L12.8187 22.8603ZM14.1824 22.862L29.7189 38.4382L29.7267 38.4304L29.7345 38.4226L14.1824 22.862ZM14.1841 22.8603L29.7362 38.4209L29.7405 38.4166L14.1841 22.8603ZM19.0055 18.0389L34.5619 33.5952L34.6967 33.4604L34.8291 33.3233L19.0055 18.0389ZM34.2643 0.849838C25.366 -7.74301 11.2583 -7.74464 2.3585 0.850993L32.9257 32.4998C24.7732 40.3737 11.8503 40.372 3.69945 32.5009L34.2643 0.849838ZM2.09058 1.11421L-1.08675 4.28957L30.0163 35.4119L33.1936 32.2366L2.09058 1.11421ZM36.4648 19.8507V0.964304H-7.53523V19.8507H36.4648ZM36.4648 0.964304C36.4648 -11.7185 26.1833 -22 13.5005 -22V22C1.88278 22 -7.53523 12.582 -7.53523 0.964304H36.4648ZM13.5005 -22C0.817611 -22 -9.46384 -11.7185 -9.46384 0.964304H34.5362C34.5362 12.582 25.1182 22 13.5005 22V-22ZM-9.46384 0.964304V19.8508H34.5362V0.964304H-9.46384ZM28.0925 4.29446L24.9171 1.11904L-6.19561 32.2317L-3.02019 35.4072L28.0925 4.29446ZM24.644 0.850651C15.5215 -7.95972 0.984386 -7.70692 -7.82636 1.41465L23.8209 31.9835C15.7501 40.339 2.43386 40.5706 -5.92251 32.5001L24.644 0.850651ZM-7.8271 1.41542C-16.4222 10.3146 -16.4222 24.4233 -7.8271 33.3225L23.8216 2.75523C31.6949 10.907 31.6949 23.8309 23.8216 31.9827L-7.8271 1.41542ZM-7.5591 33.5952L-2.73769 38.4166L28.375 7.30394L23.5536 2.48253L-7.5591 33.5952ZM-2.75635 38.3979C6.19909 47.3749 20.7384 47.3958 29.7189 38.4382L-1.35413 7.28586C6.87232 -0.919638 20.1905 -0.900289 28.3937 7.32262L-2.75635 38.3979ZM29.7345 38.4226L29.7362 38.4209L-1.36799 7.2997L-1.36974 7.30145L29.7345 38.4226ZM29.7405 38.4166L34.5619 33.5952L3.44917 2.48253L-1.37223 7.30394L29.7405 38.4166ZM34.8291 33.3233C43.6411 24.2005 43.3882 9.66161 34.2651 0.850651L3.69861 32.5001C-4.65837 24.4291 -4.89001 11.1111 3.18195 2.75442L34.8291 33.3233Z" fill="#828282" mask="url(#path-2-inside-1)"/>
</g>
<defs>
<clipPath id="clip0">
<rect width="27" height="27" fill="white"/>
</clipPath>
</defs>
</svg>
