<svg width="37" height="37" viewBox="0 0 37 37" fill="none" xmlns="http://www.w3.org/2000/svg">
<g clip-path="url(#clip0)">
<path d="M34.9576 6.53873e-08H2.04066C0.913483 0.000564641 -0.000282222 0.914894 6.53873e-08 2.04235V34.9593C0.000564641 36.0865 0.914894 37.0003 2.04235 37H34.9576C36.0854 37.0003 36.9997 36.0862 37 34.9585C37 34.9582 37 34.9579 37 34.9576V2.04066C36.9994 0.913483 36.0851 -0.000282222 34.9576 6.53873e-08Z" fill="#4267B2"/>
<path d="M25.5459 37V22.6914H30.3696L31.0923 17.0908H25.5459V13.5238C25.5459 11.9061 25.995 10.8037 28.3149 10.8037H31.2549V5.80807C30.7434 5.74004 28.9884 5.58789 26.9463 5.58789C22.6827 5.58789 19.7646 8.18945 19.7646 12.9691V17.0908H14.959V22.6914H19.7646V37H25.5459Z" fill="white"/>
</g>
<defs>
<clipPath id="clip0">
<rect width="37" height="37" fill="white"/>
</clipPath>
</defs>
</svg>
