<svg width="18" height="18" viewBox="0 0 18 18" fill="none" xmlns="http://www.w3.org/2000/svg">
<path d="M15.3625 2.63508C11.8473 -0.879104 6.14878 -0.87826 2.63459 2.63701C-0.879592 6.15229 -0.878748 11.8508 2.63653 15.3649C6.1518 18.8791 11.8503 18.8783 15.3645 15.363C17.0522 13.6748 18.0001 11.3852 17.9995 8.99808C17.999 6.61132 17.0505 4.32251 15.3625 2.63508ZM13.6297 12.5369L13.6285 12.5381V12.5351L13.1725 12.9881C12.5828 13.5853 11.7239 13.831 10.9075 13.6361C10.085 13.416 9.30313 13.0655 8.5915 12.5981C7.93035 12.1756 7.31765 11.6816 6.7645 11.1251C6.25554 10.6199 5.7983 10.0651 5.39949 9.4691C4.96327 8.82778 4.618 8.12916 4.37349 7.39309C4.09319 6.52839 4.32547 5.57956 4.9735 4.9421L5.50749 4.40811C5.65595 4.25898 5.8972 4.25845 6.04629 4.40692L6.04749 4.40811L7.73348 6.0941C7.88261 6.24257 7.88314 6.48381 7.73467 6.63291L7.73348 6.6341L6.74348 7.6241C6.45942 7.90507 6.4237 8.35156 6.65949 8.67411C7.01756 9.16553 7.4138 9.62794 7.8445 10.0571C8.3247 10.5394 8.84674 10.9781 9.40449 11.3681C9.72677 11.5929 10.1637 11.555 10.4425 11.2781L11.3995 10.3061C11.5479 10.157 11.7892 10.1565 11.9383 10.3049L11.9395 10.3061L13.6285 11.9981C13.7776 12.1466 13.7782 12.3878 13.6297 12.5369Z" fill="white"/>
</svg>
