<svg width="38" height="38" viewBox="0 0 38 38" fill="none" xmlns="http://www.w3.org/2000/svg">
<g clip-path="url(#clip0)">
<path d="M2.37454 2.5858C-0.611624 5.68755 -0.000457622 8.98247 -0.000457622 18.9923C-0.000457622 27.3048 -1.45079 35.6379 6.13971 37.5996C8.50996 38.2092 29.5113 38.2092 31.8784 37.5965C35.0387 36.7811 37.61 34.2176 37.9615 29.7479C38.0106 29.124 38.0106 8.87163 37.96 8.23513C37.5863 3.47405 34.6555 0.730133 30.7938 0.174383C29.9087 0.0461326 29.7314 0.00813254 25.1904 0.000215877C9.08312 0.00813254 5.55229 -0.709118 2.37454 2.5858Z" fill="url(#paint0_linear)"/>
<path d="M18.9972 4.97057C13.2481 4.97057 7.78877 4.45916 5.70352 9.81082C4.84219 12.0212 4.96727 14.8917 4.96727 19.0021C4.96727 22.6089 4.85169 25.9988 5.70352 28.1917C7.78402 33.5466 13.2877 33.0336 18.994 33.0336C24.4993 33.0336 30.1755 33.6067 32.2861 28.1917C33.149 25.9592 33.0224 23.1314 33.0224 19.0021C33.0224 13.5206 33.3248 9.98182 30.6664 7.32499C27.9747 4.63332 24.3346 4.97057 18.9909 4.97057H18.9972ZM17.74 7.49916C29.7322 7.48016 31.2585 6.14699 30.4162 24.6672C30.1169 31.2175 25.1294 30.4987 18.9988 30.4987C7.82044 30.4987 7.49902 30.1788 7.49902 18.9957C7.49902 7.68282 8.38569 7.50549 17.74 7.49599V7.49916ZM26.4864 9.82824C25.5569 9.82824 24.8033 10.5819 24.8033 11.5113C24.8033 12.4407 25.5569 13.1944 26.4864 13.1944C27.4158 13.1944 28.1694 12.4407 28.1694 11.5113C28.1694 10.5819 27.4158 9.82824 26.4864 9.82824ZM18.9972 11.7963C15.0183 11.7963 11.793 15.0232 11.793 19.0021C11.793 22.981 15.0183 26.2062 18.9972 26.2062C22.9761 26.2062 26.1998 22.981 26.1998 19.0021C26.1998 15.0232 22.9761 11.7963 18.9972 11.7963ZM18.9972 14.3249C25.1801 14.3249 25.188 23.6792 18.9972 23.6792C12.8159 23.6792 12.8064 14.3249 18.9972 14.3249Z" fill="white"/>
</g>
<defs>
<linearGradient id="paint0_linear" x1="2.44741" y1="35.5731" x2="37.7644" y2="5.00668" gradientUnits="userSpaceOnUse">
<stop stop-color="#FFDD55"/>
<stop offset="0.5" stop-color="#FF543E"/>
<stop offset="1" stop-color="#C837AB"/>
</linearGradient>
<clipPath id="clip0">
<rect width="38" height="38" fill="white"/>
</clipPath>
</defs>
</svg>
