<svg width="20" height="20" viewBox="0 0 20 20" fill="none" xmlns="http://www.w3.org/2000/svg">
<path d="M13.84 11.868C16.2407 8.47788 15.4378 3.78356 12.0477 1.38335C8.65757 -1.01686 3.96325 -0.214494 1.56304 3.1762C-0.83717 6.56632 -0.034806 11.2601 3.35589 13.6603C5.7756 15.3734 8.97473 15.5053 11.5269 13.9981L17.0724 19.5103C17.6711 20.1406 18.6673 20.1658 19.2976 19.567C19.9279 18.9688 19.9532 17.9726 19.355 17.3423C19.3361 17.3222 19.3177 17.3039 19.2976 17.285L13.84 11.868ZM7.69691 12.3819C5.01797 12.3825 2.84602 10.2122 2.8443 7.53328C2.84373 4.85434 5.01395 2.68239 7.69347 2.68124C10.369 2.6801 12.5398 4.84688 12.5449 7.52239C12.5495 10.2019 10.3804 12.3773 7.70035 12.3819H7.69691Z" fill="#5A5A5A"/>
</svg>
