<svg width="37" height="37" viewBox="0 0 37 37" fill="none" xmlns="http://www.w3.org/2000/svg">
<g clip-path="url(#clip0)">
<path d="M36.2377 9.61809C35.8111 8.03305 34.5615 6.78365 32.9767 6.35683C30.0813 5.56445 18.4996 5.56445 18.4996 5.56445C18.4996 5.56445 6.91828 5.56445 4.02286 6.32663C2.46859 6.75316 1.18843 8.03333 0.761891 9.61809C0 12.5132 0 18.5175 0 18.5175C0 18.5175 0 24.5519 0.761891 27.4168C1.18871 29.0016 2.43811 30.2513 4.02315 30.6781C6.94876 31.4704 18.4999 31.4704 18.4999 31.4704C18.4999 31.4704 30.0813 31.4704 32.9767 30.7083C34.5617 30.2817 35.8111 29.0321 36.238 27.4473C36.9998 24.5519 36.9998 18.5479 36.9998 18.5479C36.9998 18.5479 37.0303 12.5132 36.2377 9.61809Z" fill="#FF0000"/>
<path d="M14.8125 24.0646L24.4433 18.5177L14.8125 12.9707V24.0646Z" fill="white"/>
</g>
<defs>
<clipPath id="clip0">
<rect width="37" height="37" fill="white"/>
</clipPath>
</defs>
</svg>
